name C:\Users\u0101727\Documents\MyRepositories\upper-imu-dc\Results\main_tracking\Case_51\kinematics_filtered.mot
datacolumns 10
datarows 56
range 0.70000000 1.25000000
endheader 
time	clav_prot	clav_elev	scapula_abduction	scapula_elevation	scapula_upward_rot	scapula_winging	plane_elv	shoulder_elv	axial_rot	
          0.70000000	        -18.58785211	         -3.82204832	         -5.15804532	         -3.76044019	         13.86743854	          4.64567019	        -21.42309783	         15.72511377	         40.12693864	
          0.71000000	        -18.57858217	         -3.84691721	         -5.14869258	         -3.74878796	         13.84334534	          4.65123562	        -21.41219187	         15.71631002	         40.34085191	
          0.72000000	        -18.57113966	         -3.86886773	         -5.14375077	         -3.73701882	         13.81858952	          4.65699591	        -21.40098886	         15.70731868	         40.55558311	
          0.73000000	        -18.56661497	         -3.88594293	         -5.14561964	         -3.72515891	         13.79327177	          4.66291242	        -21.38913020	         15.69825347	         40.76715754	
          0.74000000	        -18.56540732	         -3.89735126	         -5.15517935	         -3.71315209	         13.76745397	          4.66893777	        -21.37606474	         15.68924305	         40.97187628	
          0.75000000	        -18.56743773	         -3.90310087	         -5.17223694	         -3.70085768	         13.74120858	          4.67499843	        -21.36104105	         15.68045655	         41.16624819	
          0.76000000	        -18.57239312	         -3.90357960	         -5.19604481	         -3.68805046	         13.71466440	          4.68097892	        -21.34310281	         15.67211890	         41.34694091	
          0.77000000	        -18.57990030	         -3.89925059	         -5.22566951	         -3.67442266	         13.68804348	          4.68670965	        -21.32108834	         15.66451070	         41.51076139	
          0.78000000	        -18.58963890	         -3.89045009	         -5.26023029	         -3.65958740	         13.66168905	          4.69195807	        -21.29363494	         15.65795517	         41.65466559	
          0.79000000	        -18.60140569	         -3.87726819	         -5.29903361	         -3.64308326	         13.63608643	          4.69642292	        -21.25918836	         15.65279631	         41.77579033	
          0.80000000	        -18.61514353	         -3.85949263	         -5.34163142	         -3.62438012	         13.61187857	          4.69973102	        -21.21601747	         15.64937219	         41.87149728	
          0.81000000	        -18.63094689	         -3.83659765	         -5.38782840	         -3.60288672	         13.58987744	          4.70143660	        -21.16223441	         15.64798690	         41.93941905	
          0.82000000	        -18.64905364	         -3.80776324	         -5.43765902	         -3.57796059	         13.57107170	          4.70102314	        -21.09582029	         15.64888345	         41.97749949	
          0.83000000	        -18.66983050	         -3.77191384	         -5.49135072	         -3.54892076	         13.55663044	          4.69790803	        -21.01465669	         15.65221924	         41.98402348	
          0.84000000	        -18.69375699	         -3.72776850	         -5.54928451	         -3.51506363	         13.54790163	          4.69145030	        -20.91656374	         15.65804483	         41.95763512	
          0.85000000	        -18.72141084	         -3.67389731	         -5.61196065	         -3.47568169	         13.54640376	          4.68096168	        -20.79934514	         15.66628619	         41.89734592	
          0.86000000	        -18.75345590	         -3.60878077	         -5.67997355	         -3.43008456	         13.55380806	          4.66572112	        -20.66084084	         15.67673060	         41.80253703	
          0.87000000	        -18.79063262	         -3.53086979	         -5.75399801	         -3.37762093	         13.57190863	          4.64499301	        -20.49898752	         15.68901585	         41.67296000	
          0.88000000	        -18.83374993	         -3.43864483	         -5.83478715	         -3.31769987	         13.60257748	          4.61804888	        -20.31188647	         15.70262288	         41.50874048	
          0.89000000	        -18.88367709	         -3.33067283	         -5.92318101	         -3.24980925	         13.64770179	          4.58419259	        -20.09787747	         15.71687215	         41.31038749	
          0.90000000	        -18.94133331	         -3.20566033	         -6.02012393	         -3.17352903	         13.70910096	          4.54278862	        -19.85561621	         15.73092422	         41.07880918	
          0.91000000	        -19.00767266	         -3.06250115	         -6.12668704	         -3.08853703	         13.78842282	          4.49329311	        -19.58415181	         15.74378544	         40.81533335	
          0.92000000	        -19.08366079	         -2.90031665	         -6.24409006	         -2.99460519	         13.88701986	          4.43528665	        -19.28299955	         15.75431939	         40.52172901	
          0.93000000	        -19.17023940	         -2.71848602	         -6.37371304	         -2.89158462	         14.00580973	          4.36850782	        -18.95220351	         15.76126482	         40.20022390	
          0.94000000	        -19.26827248	         -2.51666441	         -6.51708387	         -2.77937917	         14.14512795	          4.29288527	        -18.59238318	         15.76326007	         39.85351176	
          0.95000000	        -19.37846644	         -2.29478653	         -6.67582087	         -2.65790807	         14.30458572	          4.20856605	        -18.20475834	         15.75887332	         39.48474395	
          0.96000000	        -19.50125367	         -2.05305436	         -6.85150133	         -2.52706055	         14.48295088	          4.11593625	        -17.79114760	         15.74663712	         39.09750108	
          0.97000000	        -19.63662545	         -1.79190891	         -7.04541781	         -2.38664721	         14.67807549	          4.01562973	        -17.35393742	         15.72508468	         38.69574256	
          0.98000000	        -19.78389646	         -1.51198807	         -7.25817345	         -2.23635557	         14.88689759	          3.90851985	        -16.89602081	         15.69278472	         38.28373477	
          0.99000000	        -19.94137849	         -1.21407570	         -7.48905808	         -2.07571960	         15.10554598	          3.79568885	        -16.42070783	         15.64837129	         37.86596152	
          1.00000000	        -20.10593613	         -0.89905110	         -7.73513859	         -1.90411482	         15.32957411	          3.67837087	        -15.93161244	         15.59056496	         37.44702271	
          1.01000000	        -20.27239227	         -0.56785247	         -7.98999338	         -1.72079105	         15.55433862	          3.55786650	        -15.43252276	         15.51818315	         37.03152819	
          1.02000000	        -20.43274730	         -0.22147261	         -8.24202414	         -1.52495319	         15.77551809	          3.43543167	        -14.92726302	         15.43013859	         36.62399356	
          1.03000000	        -20.57517489	          0.13899057	         -8.47229535	         -1.31589518	         15.98973510	          3.31215052	        -14.41955539	         15.32542911	         36.22874280	
          1.04000000	        -20.68276599	          0.51220555	         -8.65189513	         -1.09318176	         16.19519825	          3.18881207	        -13.91288859	         15.20312744	         35.84982014	
          1.05000000	        -20.73202274	          0.89638390	         -8.73890204	         -0.85685470	         16.39222112	          3.06582196	        -13.41039744	         15.06239271	         35.49091128	
          1.06000000	        -20.69788734	          1.28951771	         -8.68717204	         -0.60760415	         16.58342613	          2.94317770	        -12.91475642	         14.90252835	         35.15527513	
          1.07000000	        -20.57215709	          1.69068073	         -8.47926601	         -0.34682401	         16.77347807	          2.82051284	        -12.42808993	         14.72307890	         34.84568623	
          1.08000000	        -20.37541153	          2.10085391	         -8.14808818	         -0.07652659	         16.96837747	          2.69720722	        -11.95190511	         14.52392086	         34.56437689	
          1.09000000	        -20.14286638	          2.52172420	         -7.75218560	          0.20082984	         17.17455797	          2.57254701	        -11.48705398	         14.30530363	         34.31296663	
          1.10000000	        -19.90476801	          2.95411966	         -7.34129057	          0.48254633	         17.39807028	          2.44588152	        -11.03372479	         14.06782871	         34.09238195	
          1.11000000	        -19.68126097	          3.39768251	         -6.94754821	          0.76589351	         17.64400147	          2.31672761	        -10.59145199	         13.81238900	         33.90277740	
          1.12000000	        -19.48440619	          3.85116795	         -6.58935773	          1.04829970	         17.91614608	          2.18481659	        -10.15913445	         13.54009919	         33.74346513	
          1.13000000	        -19.32020574	          4.31275812	         -6.27510522	          1.32749550	         18.21688856	          2.05009983	         -9.73505722	         13.25223317	         33.61286016	
          1.14000000	        -19.19042220	          4.78034569	         -6.00643376	          1.60160684	         18.54724280	          1.91272845	         -9.31691616	         12.95017144	         33.50844991	
          1.15000000	        -19.09408554	          5.25176273	         -5.78088706	          1.86919839	         18.90699511	          1.77301948	         -8.90184612	         12.63535777	         33.42679564	
          1.16000000	        -19.02865587	          5.72494610	         -5.59389532	          2.12927468	         19.29490399	          1.63141725	         -8.48645471	         12.30926376	         33.36357140	
          1.17000000	        -18.99085924	          6.19804156	         -5.44015548	          2.38124888	         19.70892031	          1.48845611	         -8.06686471	         11.97336029	         33.31364316	
          1.18000000	        -18.97724166	          6.66945461	         -5.31450186	          2.62488975	         20.14640142	          1.34472756	         -7.63876946	         11.62909566	         33.27118737	
          1.19000000	        -18.98449749	          7.13785891	         -5.21237921	          2.86025580	         20.60430274	          1.20085352	         -7.19750482	         11.27788045	         33.22984455	
          1.20000000	        -19.00963013	          7.60217362	         -5.13002734	          3.08762444	         21.07933790	          1.05746586	         -6.73814137	         10.92107940	         33.18290014	
          1.21000000	        -19.04999692	          8.06152059	         -5.06447355	          3.30742190	         21.56810503	          0.91519141	         -6.25559798	         10.56001032	         33.12348265	
          1.22000000	        -19.10328201	          8.51517061	         -5.01341121	          3.52015793	         22.06718095	          0.77464166	         -5.74477605	         10.19594953	         33.04476754	
          1.23000000	        -19.16743135	          8.96248665	         -4.97502441	          3.72636822	         22.57318788	          0.63640554	         -5.20071091	          9.83014271	         32.94017562	
          1.24000000	        -19.24057505	          9.40287009	         -4.94780194	          3.92656596	         23.08283864	          0.50104441	         -4.61873436	          9.46381950	         32.80355593	
          1.25000000	        -19.32095475	          9.83571458	         -4.93036970	          4.12120357	         23.59296670	          0.36908805	         -3.99464084	          9.09820948	         32.62934566	
